<svg width="100" height="100" viewBox="0 0 400 400" xmlns="http://www.w3.org/2000/svg">
  <!-- Sun rays -->
  <g stroke="white" stroke-width="8" stroke-linecap="round" fill="none">
    <line x1="200" y1="60" x2="200" y2="90"/>
    <line x1="235" y1="75" x2="214" y2="96"/>
    <line x1="250" y1="110" x2="220" y2="110"/>
    <line x1="235" y1="145" x2="214" y2="124"/>
    <line x1="200" y1="160" x2="200" y2="130"/>
    <line x1="165" y1="145" x2="186" y2="124"/>
    <line x1="150" y1="110" x2="180" y2="110"/>
    <line x1="165" y1="75" x2="186" y2="96"/>
  </g>
  
  <!-- Sun circle -->
  <circle cx="200" cy="110" r="25" fill="none" stroke="white" stroke-width="8"/>
  
  <!-- Open book -->
  <g fill="none" stroke="white" stroke-width="6">
    <path d="M200 200 L200 280"/>
    <path d="M200 200 Q170 195 140 205 L140 275 Q170 265 200 280"/>
    <path d="M200 200 Q230 195 260 205 L260 275 Q230 265 200 280"/>
  </g>
  
  <!-- Text lines in left page -->
  <g stroke="white" stroke-width="2" opacity="0.6">
    <line x1="150" y1="215" x2="185" y2="213"/>
    <line x1="152" y1="225" x2="187" y2="223"/>
    <line x1="154" y1="235" x2="189" y2="233"/>
    <line x1="156" y1="245" x2="191" y2="243"/>
    <line x1="158" y1="255" x2="193" y2="253"/>
    <line x1="160" y1="265" x2="185" y2="264"/>
  </g>
  
  <!-- Text lines in right page -->
  <g stroke="white" stroke-width="2" opacity="0.6">
    <line x1="215" y1="213" x2="250" y2="215"/>
    <line x1="213" y1="223" x2="248" y2="225"/>
    <line x1="211" y1="233" x2="246" y2="235"/>
    <line x1="209" y1="243" x2="244" y2="245"/>
    <line x1="207" y1="253" x2="242" y2="255"/>
    <line x1="215" y1="264" x2="240" y2="265"/>
  </g>
</svg>