<?xml version="1.0" encoding="UTF-8"?>
<svg width="128" height="128" viewBox="0 0 128 128" xmlns="http://www.w3.org/2000/svg" fill="#7a857d">
  <!-- Head -->
  <circle cx="64" cy="32" r="16" />
  
  <!-- Glasses -->
  <circle cx="54" cy="32" r="5" fill="#fff" stroke="#333" stroke-width="2"/>
  <circle cx="74" cy="32" r="5" fill="#fff" stroke="#333" stroke-width="2"/>
  <line x1="59" y1="32" x2="69" y2="32" stroke="#333" stroke-width="2"/>

  <!-- Body -->
  <path d="M40 80c0-10.5 9.5-19 24-19s24 8.5 24 19v10H40V80z" />
  
  <!-- Arm holding pen -->
  <path d="M88 80c4 0 10 8 10 12v6h-8v-4c-1-3-2-5-4-5l2-9z" />

  <!-- Pen -->
  <rect x="94" y="88" width="2" height="16" transform="rotate(45 94 88)" fill="#000"/>

  <!-- Blackboard -->
  <rect x="100" y="20" width="24" height="18" rx="1" />
</svg>